<?xml version="1.0" standalone="no"?>
<!DOCTYPE svg PUBLIC "-//W3C//DTD SVG 20010904//EN"
 "http://www.w3.org/TR/2001/REC-SVG-20010904/DTD/svg10.dtd">
<svg version="1.0" xmlns="http://www.w3.org/2000/svg"
 width="220.000000pt" height="220.000000pt" viewBox="0 0 220.000000 220.000000"
 preserveAspectRatio="xMidYMid meet">
<metadata>
Created by potrace 1.14, written by Peter Selinger 2001-2017
</metadata>
<g transform="translate(0.000000,220.000000) scale(0.100000,-0.100000)"
fill="#000000" stroke="none">
<path d="M870 2180 c-111 -26 -106 -25 -175 -51 -183 -69 -400 -239 -501 -394
-21 -33 -43 -63 -49 -67 -5 -4 -7 -8 -3 -8 4 0 -6 -22 -22 -49 -17 -26 -30
-51 -30 -53 0 -3 -8 -23 -17 -44 -9 -22 -17 -43 -18 -49 -1 -5 -3 -12 -4 -15
-4 -9 -10 -33 -30 -125 -26 -115 -28 -321 -5 -427 8 -40 17 -82 18 -93 2 -11
8 -33 15 -48 6 -16 11 -33 11 -38 0 -5 4 -17 10 -27 5 -9 18 -37 29 -62 23
-51 60 -115 104 -180 45 -65 205 -222 260 -254 26 -15 47 -32 47 -38 0 -5 4
-7 9 -3 5 3 12 1 15 -4 6 -10 152 -82 176 -86 8 -2 16 -4 18 -5 1 -2 7 -4 12
-5 6 -1 11 -3 13 -5 4 -3 26 -8 122 -30 125 -28 316 -27 445 1 52 12 101 21
108 22 6 0 12 4 12 9 0 4 3 7 8 6 20 -6 204 79 246 113 6 5 38 29 72 53 79 59
186 174 243 261 24 39 49 73 55 77 6 4 8 8 4 8 -4 0 8 30 26 68 63 124 96 285
96 461 0 124 -6 178 -34 299 -2 9 -6 24 -8 32 -1 8 -5 17 -8 20 -3 3 -13 30
-23 60 -11 30 -31 75 -45 100 -15 25 -25 48 -24 53 1 4 -3 7 -10 7 -6 0 -9 3
-5 6 3 3 -1 13 -8 22 -8 10 -34 44 -59 78 -60 80 -167 181 -258 241 -78 52
-192 112 -224 118 -10 2 -20 4 -21 5 -2 2 -6 3 -10 4 -19 5 -99 29 -113 34
-32 11 -60 13 -220 17 -140 4 -178 2 -250 -15z"/>
</g>
</svg>
